# xmcd
#
# Track frame offsets:
#	150
#	3074
#	14809
#	31505
#	43036
#	63442
#	80319
#	90696
#	110076
#	123076
#
# Disc length: 1923 seconds
#
# Revision: 0
# Processed by: cddbd v1.5.2PL0 Copyright (c) Steve Scherf et al.
# Submitted via: EZCDAudioConverter 1.3.4.1
#
DISCID=6f07810a
DTITLE=Atomic Curse - Mortal Dawn Of Lust
DYEAR=2009
DGENRE=Thrash Metal
TTITLE0=Satanic Curse
TTITLE1=Falling From The Abyss
TTITLE2=Mortal Dawn Of Lust
TTITLE3=Slave Of Satan
TTITLE4=Morbid Winds Of Death
TTITLE5=Trace To Golgotha
TTITLE6=A.S.D. (Alcoholic Scream Of Destruction)
TTITLE7=Outburst Of Hell
TTITLE8=Atomic Warriors Of Sodom
TTITLE9=The Antichrist Prophecies
EXTD=
EXTT0=
EXTT1=
EXTT2=
EXTT3=
EXTT4=
EXTT5=
EXTT6=
EXTT7=
EXTT8=
EXTT9=
PLAYORDER=
